<svg xmlns="http://www.w3.org/2000/svg" viewBox="0 0 128 128"><path fill="#363d52" d="M16 0A16 16 0 0 0 0 16v96a16 16 0 0 0 16 16h96a16 16 0 0 0 16-16V16a16 16 0 0 0-16-16z"/><path fill-opacity=".4" d="M16 0A16 16 0 0 0 0 16v96a16 16 0 0 0 16 16h96a16 16 0 0 0 16-16V16a16 16 0 0 0-16-16zm0 4h96a12 12 0 0 1 12 12v96a12 12 0 0 1-12 12H16a12 12 0 0 1-12-12V16A12 12 0 0 1 16 4"/><g stroke-width="9.9"><path fill="#fff" d="m105 80-.2-.8-15.2 1.5a2.5 2.5 0 0 0-2.2 2.3l-.4 6-11.8.8-.8-5.4a2.5 2.5 0 0 0-2.4-2.2H56c-1.2 0-2.3 1-2.5 2.2l-.8 5.4-11.7-.9-.4-6a2.5 2.5 0 0 0-2.3-2.2l-15.1-1.5-.3.8v3.3l12.9 2 .4 6.1q.2 2 2.3 2.3L54.7 95h.1c1.2 0 2.3-1 2.5-2.1l.8-5.6h11.7l.9 5.6a2.5 2.5 0 0 0 2.6 2l16.2-1.1a2.5 2.5 0 0 0 2.2-2.3l.5-6 12.8-2.1z"/><path fill="#478cbf" d="M23 55.3V80l15.3 1.5q1.3.1 1.4 1.5l.5 6.7 13.2 1 1-6.2q.1-1.3 1.6-1.4h16q1.3.1 1.6 1.4l.9 6.2 13.2-1 .5-6.7q.2-1.3 1.5-1.5l15.2-1.5v-2h.1V55.3a89 89 0 0 0 5.7-8.2 64 64 0 0 0-8.4-11A82 82 0 0 0 94 41q-2-1.9-4.2-3.5t-4.6-3q.6-5 .7-10.3A53 53 0 0 0 73.5 20a89 89 0 0 0-4.7 9l-4.8-.4-5 .4q-2-4.6-4.5-9A53 53 0 0 0 42 24.2q.1 5.2.8 10.3-2.4 1.3-4.6 3-2.3 1.5-4.3 3.5a82 82 0 0 0-8.3-4.9 64 64 0 0 0-8.4 11q3 4.6 5.7 8.2"/><path fill="#478cbf" d="m91.4 84.6-.5 6.8q-.1 1.3-1.5 1.5L73.2 94q-1.5-.1-1.7-1.4l-1-6.3h-13l-1 6.3a1.6 1.6 0 0 1-1.7 1.4l-16.3-1q-1.3-.2-1.5-1.5l-.4-6.8-13.7-1.3v3.4c0 14.4 18.3 21.3 41 21.4h.1c22.7 0 41-7 41-21.4v-3.4z"/><path fill="#fff" d="M51.6 65.3a9.1 9.1 0 1 1-18.3 0 9.1 9.1 0 0 1 18.3 0"/><path fill="#414042" d="M49.4 65.9a6 6 0 1 1-12.1 0 6 6 0 0 1 12.1 0"/><path fill="#fff" d="M64 75.3c-1.6 0-3-1.2-3-2.7v-8.4c0-1.5 1.3-2.7 3-2.7s3 1.2 3 2.7v8.4c0 1.5-1.4 2.7-3 2.7m12.3-10a9.1 9.1 0 1 0 18.3 0 9.1 9.1 0 0 0-18.3 0"/><path fill="#414042" d="M78.5 65.9a6 6 0 1 0 12.2 0 6 6 0 0 0-12.2 0"/></g></svg>